<?xml version="1.0" encoding="utf-8"?>
<!-- Generator: Adobe Illustrator 23.0.1, SVG Export Plug-In . SVG Version: 6.00 Build 0)  -->
<svg version="1.1" id="레이어_1" xmlns="http://www.w3.org/2000/svg" xmlns:xlink="http://www.w3.org/1999/xlink" x="0px"
	 y="0px" viewBox="0 0 38.36 38.14" style="enable-background:new 0 0 38.36 38.14;" xml:space="preserve">
<style type="text/css">
	.st0{fill:#353535;}
	.st1{fill:#00E2DC;}
	.st2{fill:#FFFFFF;}
</style>
<g>
	<circle class="st0" cx="19.37" cy="18.96" r="13.1"/>
	<path class="st1" d="M19.37,32.9c-7.69,0-13.94-6.26-13.94-13.94S11.68,5.02,19.37,5.02s13.94,6.26,13.94,13.94
		S27.05,32.9,19.37,32.9z M19.37,6.71c-6.75,0-12.25,5.49-12.25,12.25c0,6.75,5.49,12.25,12.25,12.25s12.25-5.49,12.25-12.25
		C31.61,12.2,26.12,6.71,19.37,6.71z"/>
</g>
<g>
	<circle class="st0" cx="19.37" cy="19.16" r="4.5"/>
	<path class="st1" d="M19.37,24.51c-2.95,0-5.35-2.4-5.35-5.35s2.4-5.35,5.35-5.35s5.35,2.4,5.35,5.35S22.32,24.51,19.37,24.51z
		 M19.37,15.51c-2.02,0-3.66,1.64-3.66,3.66s1.64,3.66,3.66,3.66s3.66-1.64,3.66-3.66S21.38,15.51,19.37,15.51z"/>
</g>
<g>
	<line class="st2" x1="19.37" y1="11.43" x2="19.37" y2="27.45"/>
	<path class="st1" d="M19.37,28.18c-0.4,0-0.73-0.33-0.73-0.73V11.43c0-0.4,0.33-0.73,0.73-0.73c0.4,0,0.73,0.33,0.73,0.73v16.02
		C20.1,27.85,19.77,28.18,19.37,28.18z"/>
</g>
<g>
	<line class="st2" x1="8.5" y1="19.28" x2="2.34" y2="19.28"/>
	<path class="st1" d="M8.5,20.01H2.34c-0.4,0-0.73-0.33-0.73-0.73c0-0.4,0.33-0.73,0.73-0.73H8.5c0.4,0,0.73,0.33,0.73,0.73
		C9.23,19.68,8.91,20.01,8.5,20.01z"/>
</g>
<g>
	<line class="st2" x1="36.53" y1="19.28" x2="30.37" y2="19.28"/>
	<path class="st1" d="M36.53,20.01h-6.16c-0.4,0-0.73-0.33-0.73-0.73c0-0.4,0.33-0.73,0.73-0.73h6.16c0.4,0,0.73,0.33,0.73,0.73
		C37.26,19.68,36.93,20.01,36.53,20.01z"/>
</g>
<g>
	<line class="st2" x1="19.62" y1="8.26" x2="19.62" y2="2.1"/>
	<path class="st1" d="M19.62,8.99c-0.4,0-0.73-0.33-0.73-0.73V2.1c0-0.4,0.33-0.73,0.73-0.73c0.4,0,0.73,0.33,0.73,0.73v6.16
		C20.35,8.67,20.02,8.99,19.62,8.99z"/>
</g>
<g>
	<line class="st2" x1="19.62" y1="36.29" x2="19.62" y2="30.13"/>
	<path class="st1" d="M19.62,37.02c-0.4,0-0.73-0.33-0.73-0.73v-6.16c0-0.4,0.33-0.73,0.73-0.73c0.4,0,0.73,0.33,0.73,0.73v6.16
		C20.35,36.69,20.02,37.02,19.62,37.02z"/>
</g>
<g>
	<line class="st2" x1="27.39" y1="19.43" x2="11.37" y2="19.43"/>
	<path class="st1" d="M27.39,20.15H11.37c-0.4,0-0.73-0.33-0.73-0.73c0-0.4,0.33-0.73,0.73-0.73h16.02c0.4,0,0.73,0.33,0.73,0.73
		C28.11,19.83,27.79,20.15,27.39,20.15z"/>
</g>
</svg>
