{
  "accessors": [
    {
      "bufferView": 2,
      "componentType": 5126,
      "count": 16467,
      "max": [
        14.899383544921875,
        -2.4415054321289062,
        15.01121711730957
      ],
      "min": [
        -7.4921417236328125,
        -44.624435424804688,
        -7.4476280212402344
      ],
      "type": "VEC3"
    },
    {
      "bufferView": 2,
      "byteOffset": 197604,
      "componentType": 5126,
      "count": 16467,
      "max": [
        0.99996000528335571,
        0.99973303079605103,
        0.99990361928939819
      ],
      "min": [
        -0.9999125599861145,
        -0.99990051984786987,
        -0.99986761808395386
      ],
      "type": "VEC3"
    },
    {
      "bufferView": 3,
      "componentType": 5126,
      "count": 16467,
      "max": [
        0.99999994039535522,
        1,
        0.99303185939788818,
        -1
      ],
      "min": [
        -0.99999970197677612,
        -1,
        -0.98817843198776245,
        -1
      ],
      "type": "VEC4"
    },
    {
      "bufferView": 3,
      "byteOffset": 263472,
      "componentType": 5126,
      "count": 16467,
      "max": [
        0.99607843160629272,
        0.99607843160629272,
        0.99607843160629272,
        1
      ],
      "min": [
        0.047058824449777603,
        0.019607843831181526,
        0.027450980618596077,
        1
      ],
      "type": "VEC4"
    },
    {
      "bufferView": 1,
      "componentType": 5126,
      "count": 16467,
      "max": [
        0.99987798929214478,
        0.99987798929214478
      ],
      "min": [
        0.00012199999764561653,
        0.00012199999764561653
      ],
      "type": "VEC2"
    },
    {
      "bufferView": 0,
      "componentType": 5125,
      "count": 49710,
      "max": [
        16466
      ],
      "min": [
        0
      ],
      "type": "SCALAR"
    }
  ],
  "asset": {
    "extras": {
      "author": "Miguel Bandera (https://sketchfab.com/miguelbandera)",
      "license": "SKETCHFAB Standard (https://sketchfab.com/licenses)",
      "source": "https://sketchfab.com/models/29629171e1b64a29a953933b75c75158",
      "title": "Space suit photogrammetry scan"
    },
    "generator": "Sketchfab-3.41.2",
    "version": "2.0"
  },
  "bufferViews": [
    {
      "buffer": 0,
      "byteLength": 198840,
      "byteOffset": 0,
      "name": "floatBufferViews",
      "target": 34963
    },
    {
      "buffer": 0,
      "byteLength": 131736,
      "byteOffset": 198840,
      "byteStride": 8,
      "name": "floatBufferViews",
      "target": 34962
    },
    {
      "buffer": 0,
      "byteLength": 395208,
      "byteOffset": 330576,
      "byteStride": 12,
      "name": "floatBufferViews",
      "target": 34962
    },
    {
      "buffer": 0,
      "byteLength": 526944,
      "byteOffset": 725784,
      "byteStride": 16,
      "name": "floatBufferViews",
      "target": 34962
    }
  ],
  "buffers": [
    {
      "byteLength": 1252728,
      "uri": "scene.bin"
    }
  ],
  "extensionsUsed": [
    "KHR_materials_unlit"
  ],
  "images": [
    {
      "uri": "textures/astronauta_v2_Material_u1_v1_baseColor.png"
    }
  ],
  "materials": [
    {
      "doubleSided": true,
      "emissiveFactor": [
        0,
        0,
        0
      ],
      "extensions": {
        "KHR_materials_unlit": {}
      },
      "name": "astronauta_v2_Material_u1_v1",
      "pbrMetallicRoughness": {
        "baseColorFactor": [
          1,
          1,
          1,
          1
        ],
        "baseColorTexture": {
          "index": 0,
          "texCoord": 0
        },
        "metallicFactor": 0,
        "roughnessFactor": 1
      }
    }
  ],
  "meshes": [
    {
      "primitives": [
        {
          "attributes": {
            "COLOR_0": 3,
            "NORMAL": 1,
            "POSITION": 0,
            "TANGENT": 2,
            "TEXCOORD_0": 4
          },
          "indices": 5,
          "material": 0,
          "mode": 4
        }
      ]
    }
  ],
  "nodes": [
    {
      "children": [
        1
      ],
      "name": "RootNode (gltf orientation matrix)",
      "rotation": [
        -0.70710678118654746,
        -0,
        -0,
        0.70710678118654757
      ]
    },
    {
      "children": [
        2
      ],
      "matrix": [
        0.92305827140808105,
        0.38466021418571472,
        0,
        0,
        -0.018395889550447464,
        0.044144101440906525,
        -0.99885576963424683,
        0,
        -0.38422006368637085,
        0.92200207710266113,
        0.047823742032051086,
        0,
        1.305091381072998,
        -27.405548095703125,
        -19.905086517333984,
        1
      ],
      "name": "RootNode (model correction matrix)"
    },
    {
      "children": [
        3
      ],
      "name": "astronauta_v2.obj.cleaner.materialmerger.gles"
    },
    {
      "mesh": 0,
      "name": ""
    }
  ],
  "samplers": [
    {
      "magFilter": 9729,
      "minFilter": 9987,
      "wrapS": 10497,
      "wrapT": 10497
    }
  ],
  "scene": 0,
  "scenes": [
    {
      "name": "OSG_Scene",
      "nodes": [
        0
      ]
    }
  ],
  "textures": [
    {
      "sampler": 0,
      "source": 0
    }
  ]
}

